# xmcd
# 
# Track frame offsets:
#     150
#     12117
#     27402
#     42545
#     56497
#     70437
#     85665
#     100590
#     116410
#     131657
#     146395
#     160467
#     178500
#     192742
#     206645
#     222952
#     237720
#     251270
#     265855
# 
# Disc length: 3795
# 
# Revision: 1
# Processed by: cddbd v1.5.2PL0 Copyright (c) Steve Scherf et al.
# Submitted via: BonkEnc v1.0.8
# 
DISCID=160ed113
DTITLE=Louis Armstrong - What a wohderful Louis Armstrong
DYEAR=0
DGENRE=Jazz
TTITLE0=White Christmas
TTITLE1=I Can't Give You Anything But Love
TTITLE2=Birth of Blue
TTITLE3=Wild Man Blue
TTITLE4=Some of These Days
TTITLE5=Bessie Couldn't Help It
TTITLE6=A Dear Old Southland
TTITLE7=A Song of the Island
TTITLE8=No One Else But You
TTITLE9=Knocking a Jug
TTITLE10=Melancholy
TTITLE11=Ole Miss
TTITLE12=12th Street Rag
TTITLE13=You'll Never Walk Alone
TTITLE14=I Love Paris
TTITLE15=After You've Gone
TTITLE16=Can't Help Loving the Man
TTITLE17=Willie the Weeper
TTITLE18=I Love Jazz
EXTD=
EXTT0=
EXTT1=
EXTT2=
EXTT3=
EXTT4=
EXTT5=
EXTT6=
EXTT7=
EXTT8=
EXTT9=
EXTT10=
EXTT11=
EXTT12=
EXTT13=
EXTT14=
EXTT15=
EXTT16=
EXTT17=
EXTT18=
PLAYORDER=
